<?xml version="1.0" encoding="UTF-8" standalone="no"?>
<!DOCTYPE svg PUBLIC "-//W3C//DTD SVG 1.1//EN"
 "http://www.w3.org/Graphics/SVG/1.1/DTD/svg11.dtd">
<!-- Generated by graphviz version 14.1.0 (20251206.1807)
 -->
<!-- Pages: 1 -->
<svg width="87pt" height="302pt"
 viewBox="0.00 0.00 87.00 302.00" xmlns="http://www.w3.org/2000/svg" xmlns:xlink="http://www.w3.org/1999/xlink">
<g id="graph0" class="graph" transform="scale(1 1) rotate(0) translate(4 298)">
<polygon fill="white" stroke="none" points="-4,4 -4,-298 82.75,-298 82.75,4 -4,4"/>
<!-- fake -->
<g id="node1" class="node">
<title>fake</title>
</g>
<!-- 1 -->
<g id="node2" class="node">
<title>1</title>
<ellipse fill="none" stroke="black" cx="27" cy="-203" rx="27" ry="18"/>
<text xml:space="preserve" text-anchor="middle" x="27" y="-197.95" font-family="Times New Roman,serif" font-size="14.00">1</text>
</g>
<!-- fake&#45;&gt;1 -->
<g id="edge1" class="edge">
<title>fake&#45;&gt;1</title>
<path fill="none" stroke="black" stroke-width="2" d="M27,-257.81C27,-250.23 27,-241.1 27,-232.54"/>
<polygon fill="black" stroke="black" stroke-width="2" points="30.5,-234.06 27,-224.06 23.5,-234.06 30.5,-234.06"/>
</g>
<!-- 1&#45;&gt;1 -->
<g id="edge6" class="edge">
<title>1&#45;&gt;1</title>
<path fill="none" stroke="black" d="M52.44,-209.78C63.03,-210.25 72,-207.99 72,-203 72,-199.96 68.67,-197.93 63.67,-196.92"/>
<polygon fill="black" stroke="black" points="64.15,-193.44 53.95,-196.31 63.72,-200.43 64.15,-193.44"/>
<text xml:space="preserve" text-anchor="middle" x="75.38" y="-197.95" font-family="Times New Roman,serif" font-size="14.00">b</text>
</g>
<!-- 3 -->
<g id="node4" class="node">
<title>3</title>
<ellipse fill="none" stroke="black" cx="27" cy="-114.5" rx="27" ry="18"/>
<text xml:space="preserve" text-anchor="middle" x="27" y="-109.45" font-family="Times New Roman,serif" font-size="14.00">3</text>
</g>
<!-- 1&#45;&gt;3 -->
<g id="edge3" class="edge">
<title>1&#45;&gt;3</title>
<path fill="none" stroke="black" d="M21.15,-185.11C19.46,-179.43 17.84,-173.01 17,-167 15.98,-159.74 15.98,-157.76 17,-150.5 17.33,-148.15 17.78,-145.74 18.3,-143.34"/>
<polygon fill="black" stroke="black" points="21.64,-144.41 20.77,-133.85 14.86,-142.65 21.64,-144.41"/>
<text xml:space="preserve" text-anchor="middle" x="20" y="-153.7" font-family="Times New Roman,serif" font-size="14.00">a</text>
</g>
<!-- 2 -->
<g id="node3" class="node">
<title>2</title>
<ellipse fill="none" stroke="black" cx="27" cy="-22" rx="18" ry="18"/>
<ellipse fill="none" stroke="black" cx="27" cy="-22" rx="22" ry="22"/>
<text xml:space="preserve" text-anchor="middle" x="27" y="-16.95" font-family="Times New Roman,serif" font-size="14.00">2</text>
</g>
<!-- 2&#45;&gt;2 -->
<g id="edge2" class="edge">
<title>2&#45;&gt;2</title>
<path fill="none" stroke="black" d="M47.58,-30.78C57.84,-31.99 67,-29.07 67,-22 67,-17.8 63.77,-15.07 59,-13.79"/>
<polygon fill="black" stroke="black" points="59.25,-10.3 49.09,-13.3 58.91,-17.29 59.25,-10.3"/>
<text xml:space="preserve" text-anchor="middle" x="70" y="-16.95" font-family="Times New Roman,serif" font-size="14.00">c</text>
</g>
<!-- 3&#45;&gt;1 -->
<g id="edge4" class="edge">
<title>3&#45;&gt;1</title>
<path fill="none" stroke="black" d="M27,-132.85C27,-144.56 27,-160.29 27,-173.78"/>
<polygon fill="black" stroke="black" points="23.5,-173.4 27,-183.4 30.5,-173.4 23.5,-173.4"/>
<text xml:space="preserve" text-anchor="middle" x="30.38" y="-153.7" font-family="Times New Roman,serif" font-size="14.00">b</text>
</g>
<!-- 3&#45;&gt;2 -->
<g id="edge5" class="edge">
<title>3&#45;&gt;2</title>
<path fill="none" stroke="black" d="M27,-96.05C27,-84.61 27,-69.3 27,-55.65"/>
<polygon fill="black" stroke="black" points="30.5,-55.73 27,-45.73 23.5,-55.73 30.5,-55.73"/>
<text xml:space="preserve" text-anchor="middle" x="30" y="-65.2" font-family="Times New Roman,serif" font-size="14.00">a</text>
</g>
</g>
</svg>
