<?xml version="1.0" encoding="UTF-8" standalone="no"?>
<!DOCTYPE svg PUBLIC "-//W3C//DTD SVG 1.1//EN"
 "http://www.w3.org/Graphics/SVG/1.1/DTD/svg11.dtd">
<!-- Generated by graphviz version 14.1.0 (20251206.1807)
 -->
<!-- Pages: 1 -->
<svg width="82pt" height="222pt"
 viewBox="0.00 0.00 82.00 222.00" xmlns="http://www.w3.org/2000/svg" xmlns:xlink="http://www.w3.org/1999/xlink">
<g id="graph0" class="graph" transform="scale(1 1) rotate(0) translate(4 217.5)">
<polygon fill="white" stroke="none" points="-4,4 -4,-217.5 77.75,-217.5 77.75,4 -4,4"/>
<!-- fake -->
<g id="node1" class="node">
<title>fake</title>
</g>
<!-- 0 -->
<g id="node2" class="node">
<title>0</title>
<ellipse fill="none" stroke="black" cx="27" cy="-118.5" rx="18" ry="18"/>
<ellipse fill="none" stroke="black" cx="27" cy="-118.5" rx="22" ry="22"/>
<text xml:space="preserve" text-anchor="middle" x="27" y="-113.45" font-family="Times New Roman,serif" font-size="14.00">0</text>
</g>
<!-- fake&#45;&gt;0 -->
<g id="edge1" class="edge">
<title>fake&#45;&gt;0</title>
<path fill="none" stroke="black" stroke-width="2" d="M27,-177.1C27,-169.67 27,-160.73 27,-152.14"/>
<polygon fill="black" stroke="black" stroke-width="2" points="30.5,-153.84 27,-143.84 23.5,-153.84 30.5,-153.84"/>
</g>
<!-- 0&#45;&gt;0 -->
<g id="edge4" class="edge">
<title>0&#45;&gt;0</title>
<path fill="none" stroke="black" d="M47.99,-125.91C58.09,-126.82 67,-124.35 67,-118.5 67,-115.02 63.86,-112.74 59.19,-111.65"/>
<polygon fill="black" stroke="black" points="59.66,-108.17 49.5,-111.17 59.31,-115.16 59.66,-108.17"/>
<text xml:space="preserve" text-anchor="middle" x="70.38" y="-113.45" font-family="Times New Roman,serif" font-size="14.00">1</text>
</g>
<!-- 1 -->
<g id="node3" class="node">
<title>1</title>
<ellipse fill="none" stroke="black" cx="27" cy="-22" rx="18" ry="18"/>
<ellipse fill="none" stroke="black" cx="27" cy="-22" rx="22" ry="22"/>
<text xml:space="preserve" text-anchor="middle" x="27" y="-16.95" font-family="Times New Roman,serif" font-size="14.00">1</text>
</g>
<!-- 0&#45;&gt;1 -->
<g id="edge3" class="edge">
<title>0&#45;&gt;1</title>
<path fill="none" stroke="black" d="M19.76,-97.51C17.91,-91.49 16.18,-84.8 15.25,-78.5 14.07,-70.51 14.85,-61.95 16.46,-54"/>
<polygon fill="black" stroke="black" points="19.83,-54.95 18.9,-44.4 13.05,-53.23 19.83,-54.95"/>
<text xml:space="preserve" text-anchor="middle" x="18.62" y="-65.2" font-family="Times New Roman,serif" font-size="14.00">0</text>
</g>
<!-- 1&#45;&gt;0 -->
<g id="edge5" class="edge">
<title>1&#45;&gt;0</title>
<path fill="none" stroke="black" d="M27,-44.36C27,-56.31 27,-71.45 27,-84.85"/>
<polygon fill="black" stroke="black" points="23.5,-84.54 27,-94.54 30.5,-84.54 23.5,-84.54"/>
<text xml:space="preserve" text-anchor="middle" x="30.38" y="-65.2" font-family="Times New Roman,serif" font-size="14.00">0</text>
</g>
<!-- 1&#45;&gt;1 -->
<g id="edge2" class="edge">
<title>1&#45;&gt;1</title>
<path fill="none" stroke="black" d="M47.58,-30.78C57.84,-31.99 67,-29.07 67,-22 67,-17.8 63.77,-15.07 59,-13.79"/>
<polygon fill="black" stroke="black" points="59.25,-10.3 49.09,-13.3 58.91,-17.29 59.25,-10.3"/>
<text xml:space="preserve" text-anchor="middle" x="70.38" y="-16.95" font-family="Times New Roman,serif" font-size="14.00">1</text>
</g>
</g>
</svg>
