<?xml version="1.0" encoding="UTF-8" standalone="no"?>
<!DOCTYPE svg PUBLIC "-//W3C//DTD SVG 1.1//EN"
 "http://www.w3.org/Graphics/SVG/1.1/DTD/svg11.dtd">
<!-- Generated by graphviz version 14.1.0 (20251206.1807)
 -->
<!-- Pages: 1 -->
<svg width="107pt" height="222pt"
 viewBox="0.00 0.00 107.00 222.00" xmlns="http://www.w3.org/2000/svg" xmlns:xlink="http://www.w3.org/1999/xlink">
<g id="graph0" class="graph" transform="scale(1 1) rotate(0) translate(4 217.5)">
<polygon fill="white" stroke="none" points="-4,4 -4,-217.5 102.5,-217.5 102.5,4 -4,4"/>
<!-- fake -->
<g id="node1" class="node">
<title>fake</title>
</g>
<!-- 0 -->
<g id="node3" class="node">
<title>0</title>
<ellipse fill="none" stroke="black" cx="27" cy="-118.5" rx="18" ry="18"/>
<ellipse fill="none" stroke="black" cx="27" cy="-118.5" rx="22" ry="22"/>
<text xml:space="preserve" text-anchor="middle" x="27" y="-113.45" font-family="Times New Roman,serif" font-size="14.00">0</text>
</g>
<!-- fake&#45;&gt;0 -->
<g id="edge1" class="edge">
<title>fake&#45;&gt;0</title>
<path fill="none" stroke="black" stroke-width="2" d="M27,-177.1C27,-169.67 27,-160.73 27,-152.14"/>
<polygon fill="black" stroke="black" stroke-width="2" points="30.5,-153.84 27,-143.84 23.5,-153.84 30.5,-153.84"/>
</g>
<!-- 1 -->
<g id="node2" class="node">
<title>1</title>
<ellipse fill="none" stroke="black" cx="27" cy="-22" rx="18" ry="18"/>
<ellipse fill="none" stroke="black" cx="27" cy="-22" rx="22" ry="22"/>
<text xml:space="preserve" text-anchor="middle" x="27" y="-16.95" font-family="Times New Roman,serif" font-size="14.00">1</text>
</g>
<!-- 1&#45;&gt;1 -->
<g id="edge2" class="edge">
<title>1&#45;&gt;1</title>
<path fill="none" stroke="black" d="M48.81,-26.45C58.56,-26.88 67,-25.39 67,-22 67,-20.09 64.33,-18.79 60.26,-18.09"/>
<polygon fill="black" stroke="black" points="60.47,-14.59 50.32,-17.62 60.14,-21.58 60.47,-14.59"/>
<text xml:space="preserve" text-anchor="middle" x="70.38" y="-16.95" font-family="Times New Roman,serif" font-size="14.00">0</text>
</g>
<!-- 1&#45;&gt;1 -->
<g id="edge7" class="edge">
<title>1&#45;&gt;1</title>
<path fill="none" stroke="black" d="M48.11,-29.61C66.1,-32.97 85,-30.43 85,-22 85,-15.34 73.23,-12.36 59.43,-13.05"/>
<polygon fill="black" stroke="black" points="59.14,-9.56 49.62,-14.21 59.96,-16.51 59.14,-9.56"/>
<text xml:space="preserve" text-anchor="middle" x="88.38" y="-16.95" font-family="Times New Roman,serif" font-size="14.00">1</text>
</g>
<!-- 1&#45;&gt;0 -->
<g id="edge4" class="edge">
<title>1&#45;&gt;0</title>
<path fill="none" stroke="black" d="M27,-44.36C27,-56.31 27,-71.45 27,-84.85"/>
<polygon fill="black" stroke="black" points="23.5,-84.54 27,-94.54 30.5,-84.54 23.5,-84.54"/>
<text xml:space="preserve" text-anchor="middle" x="30.38" y="-65.2" font-family="Times New Roman,serif" font-size="14.00">2</text>
</g>
<!-- 0&#45;&gt;1 -->
<g id="edge3" class="edge">
<title>0&#45;&gt;1</title>
<path fill="none" stroke="black" d="M19.76,-97.51C17.91,-91.49 16.18,-84.8 15.25,-78.5 14.07,-70.51 14.85,-61.95 16.46,-54"/>
<polygon fill="black" stroke="black" points="19.83,-54.95 18.9,-44.4 13.05,-53.23 19.83,-54.95"/>
<text xml:space="preserve" text-anchor="middle" x="18.62" y="-65.2" font-family="Times New Roman,serif" font-size="14.00">2</text>
</g>
<!-- 0&#45;&gt;0 -->
<g id="edge5" class="edge">
<title>0&#45;&gt;0</title>
<path fill="none" stroke="black" d="M48.81,-122.24C58.56,-122.59 67,-121.35 67,-118.5 67,-116.9 64.33,-115.8 60.26,-115.22"/>
<polygon fill="black" stroke="black" points="60.45,-111.72 50.32,-114.82 60.17,-118.71 60.45,-111.72"/>
<text xml:space="preserve" text-anchor="middle" x="70.38" y="-113.45" font-family="Times New Roman,serif" font-size="14.00">1</text>
</g>
<!-- 0&#45;&gt;0 -->
<g id="edge6" class="edge">
<title>0&#45;&gt;0</title>
<path fill="none" stroke="black" d="M48.42,-124.94C66.31,-127.69 85,-125.54 85,-118.5 85,-112.94 73.36,-110.44 59.66,-110.98"/>
<polygon fill="black" stroke="black" points="59.54,-107.47 49.92,-111.92 60.21,-114.44 59.54,-107.47"/>
<text xml:space="preserve" text-anchor="middle" x="88.38" y="-113.45" font-family="Times New Roman,serif" font-size="14.00">0</text>
</g>
</g>
</svg>
